<svg width="118" height="32" viewBox="0 0 118 32" fill="none" xmlns="http://www.w3.org/2000/svg">
<path d="M94.4549 29.6843H86.6432C86.6432 29.6843 74.9257 29.6194 74.9257 16.2033C74.9257 2.78717 86.6432 2.69454 86.6432 2.69454H94.4549V8.48401L90.5491 12.3437H86.6432L84.6903 14.2735V18.1331L86.6432 20.063H90.5491L94.4549 24.8875V29.6843ZM108.125 29.6843C108.125 29.6843 96.4079 29.6843 96.4079 16.1755C96.4079 2.66675 108.125 2.66675 108.125 2.66675C108.125 2.66675 115.937 2.66675 115.937 10.386V14.2457L112.031 18.1053H106.172L108.125 20.0352H112.031L115.937 24.8597V29.6843H108.125ZM33.9143 21.965V29.6843H24.1497V2.66675H33.9143C33.9143 2.66675 43.6789 2.66675 43.6789 12.3159C43.6789 21.965 33.9143 21.965 33.9143 21.965ZM15.3615 13.2808V12.3159H21.2156V2.66675H12.4321C12.4321 2.66675 2.66748 2.66675 2.66748 10.386C2.66748 18.1053 9.49803 19.0703 9.49803 19.0703V20.0352H3.63926L3.67519 29.6843H12.4321C12.4321 29.6843 22.1967 29.6843 22.1967 21.965C22.1967 14.2457 15.3615 13.2808 15.3615 13.2808ZM72.9728 16.1755C72.9728 18.8473 72.171 21.4591 70.6689 23.6806C69.1667 25.9021 67.0317 27.6335 64.5338 28.656C62.0358 29.6784 59.2871 29.946 56.6353 29.4247C53.9835 28.9035 51.5477 27.6169 49.6358 25.7277C47.724 23.8384 46.422 21.4314 45.8945 18.8109C45.367 16.1905 45.6377 13.4743 46.6724 11.0059C47.7071 8.53753 49.4593 6.42775 51.7074 4.94338C53.9555 3.45902 56.5985 2.66675 59.3023 2.66675C62.9279 2.66675 66.4051 4.08999 68.9688 6.62337C71.5325 9.15676 72.9728 12.5928 72.9728 16.1755ZM69.3622 26.1164H72.9728V29.6843H69.3622V26.1164Z" fill="black"/>
</svg>
