<svg width="70" height="42" viewBox="0 0 70 42" fill="none" xmlns="http://www.w3.org/2000/svg">
<g clip-path="url(#clip0_426_282)">
<path d="M52.3995 8.84552C51.0941 8.84552 49.818 9.23446 48.7325 9.96315C47.6471 10.6918 46.8011 11.7275 46.3016 12.9393C45.802 14.1511 45.6713 15.4845 45.926 16.7709C46.1807 18.0573 46.8093 19.2389 47.7324 20.1663C48.6554 21.0938 49.8315 21.7254 51.1118 21.9813C52.3921 22.2371 53.7192 22.1058 54.9253 21.6039C56.1313 21.102 57.1622 20.252 57.8874 19.1614C58.6127 18.0709 58.9998 16.7887 58.9998 15.4771C58.9998 13.7183 58.3044 12.0315 57.0666 10.7879C55.8288 9.54421 54.15 8.84552 52.3995 8.84552ZM20.4981 8.84552C19.1926 8.84552 17.9165 9.23446 16.8311 9.96315C15.7457 10.6918 14.8997 11.7275 14.4002 12.9393C13.9006 14.1511 13.7699 15.4845 14.0246 16.7709C14.2793 18.0573 14.9079 19.2389 15.8309 20.1663C16.754 21.0938 17.9301 21.7254 19.2104 21.9813C20.4907 22.2371 21.8178 22.1058 23.0239 21.6039C24.2299 21.102 25.2607 20.252 25.986 19.1614C26.7112 18.0709 27.0983 16.7887 27.0983 15.4771C27.0983 13.7183 26.403 12.0315 25.1652 10.7879C23.9274 9.54421 22.2486 8.84552 20.4981 8.84552ZM29.2984 0.00341797V22.1087H34.7987V5.10089L29.2984 0.00341797ZM43.5991 13.2666L38.7272 8.74384L34.7987 17.1306L39.1989 22.1043H43.5991V18.7885L41.399 16.5779L43.5991 13.2666ZM15.7291 0.00341797L6.19742 9.58384V22.1087H11.6977V11.8262L19.6251 3.90721V0.00341797H15.7291ZM8.31919 3.90898L4.42942 7.8163L0.540527 3.90898L4.42942 0.00341797L8.31919 3.90898Z" fill="black"/>
<path d="M57.8996 42.0036H53.4994C53.4994 42.0036 46.8991 41.9665 46.8991 34.2827C46.8991 26.5989 53.4994 26.5458 53.4994 26.5458H57.8996V29.8616L55.6995 32.0721H53.4994L52.3993 33.1774V35.3879L53.4994 36.4932H55.6995L57.8996 39.2563V42.0036ZM65.5999 42.0036C65.5999 42.0036 58.9996 42.0036 58.9996 34.2667C58.9996 26.5299 65.5999 26.5299 65.5999 26.5299C65.5999 26.5299 70.0001 26.5299 70.0001 30.951V33.1615L67.8 35.372H64.4998L65.5999 36.4773H67.8L70.0001 39.2404V42.0036H65.5999ZM23.798 37.5825V42.0036H18.2978V26.5299H23.798C23.798 26.5299 29.2983 26.5299 29.2983 32.0562C29.2983 37.5825 23.798 37.5825 23.798 37.5825ZM13.3476 32.6053V32.0527H16.6451V26.5299H11.6975C11.6975 26.5299 6.19727 26.5299 6.19727 30.951C6.19727 35.372 10.0448 35.9211 10.0448 35.9211V36.4737H6.74465L6.76489 42.0001H11.6975C11.6975 42.0001 17.1978 42.0001 17.1978 37.579C17.1978 33.1579 13.3476 32.6053 13.3476 32.6053ZM45.799 34.2632C45.799 35.7934 45.3474 37.2893 44.5013 38.5616C43.6552 39.8339 42.4525 40.8255 41.0455 41.4111C39.6384 41.9967 38.0901 42.1499 36.5964 41.8514C35.1027 41.5529 33.7306 40.816 32.6537 39.734C31.5768 38.652 30.8434 37.2734 30.5463 35.7726C30.2492 34.2718 30.4017 32.7162 30.9845 31.3024C31.5673 29.8887 32.5543 28.6804 33.8206 27.8303C35.0869 26.9801 36.5757 26.5264 38.0987 26.5264C39.1099 26.5263 40.1113 26.7263 41.0456 27.1151C41.9799 27.5038 42.8288 28.0737 43.5439 28.7922C44.259 29.5106 44.8262 30.3636 45.2131 31.3023C45.6 32.241 45.7991 33.2472 45.799 34.2632ZM43.7653 39.9566H45.799V42.0036H43.7653V39.9566Z" fill="black"/>
</g>
<defs>
<clipPath id="clip0_426_282">
<rect width="69.4597" height="42" fill="white" transform="translate(0.540527)"/>
</clipPath>
</defs>
</svg>
